<?xml version="1.0" encoding="UTF-8" standalone="no"?>
<svg
   width="500"
   zoomAndPan="magnify"
   viewBox="0 0 375 374.999991"
   height="500"
   preserveAspectRatio="xMidYMid meet"
   version="1.0"
   id="svg83"
   xmlns="http://www.w3.org/2000/svg"
   xmlns:svg="http://www.w3.org/2000/svg">
  <defs
     id="defs7">
    <g
       id="g2" />
    <clipPath
       id="8eaaa0e67d">
      <path
         d="M 129 80.375 L 246 80.375 L 246 207.125 L 129 207.125 Z M 129 80.375 "
         clip-rule="nonzero"
         id="path4" />
    </clipPath>
  </defs>
  <g
     clip-path="url(#8eaaa0e67d)"
     id="g17"
     transform="matrix(2.835207,0,0,2.7597709,-344.20653,-213.1491)">
    <path
       fill="#50fa7b"
       d="m 175.51562,160.69922 -21.89453,-21.9375 v -11.96094 l 33.91797,33.98828 24.21875,24.26953 c 7.71485,7.73047 20.38281,7.73047 28.09766,0 7.71484,-7.73047 7.71484,-20.42968 0,-28.15625 L 228.91016,145.88672 V 98.730469 c 3.40234,-1.46875 5.8164,-4.191407 5.8164,-8.8125 0,-4.621094 -4.26562,-9.585938 -9.5664,-9.585938 -5.25782,0 -9.56641,4.964844 -9.56641,9.585938 0,4.621093 2.41406,7.34375 5.81641,8.8125 v 39.687501 l -16.63282,-16.67188 c 0.42969,-1.07812 0.6875,-2.28906 0.6875,-3.53906 0,-5.26953 -4.26562,-9.58984 -9.5664,-9.58984 -5.25782,0 -9.56641,4.27734 -9.56641,9.58984 0,5.26953 4.26563,9.58594 9.56641,9.58594 1.29297,0 2.5,-0.25781 3.66406,-0.73438 l 21.89062,21.9375 v 11.96485 l -33.91406,-33.98828 -24.22265,-24.26953 c -7.71485,-7.730474 -20.38282,-7.730474 -28.09766,0 -7.71484,7.73046 -7.71484,20.42578 0,28.15624 l 10.94531,11.01172 v 46.85547 c -3.40234,1.46875 -5.8164,4.19141 -5.8164,8.8125 0,4.6211 4.26562,9.58594 9.5664,9.58594 5.25781,0 9.56641,-4.96484 9.56641,-9.58594 0,-4.62109 -2.41016,-7.34375 -5.81641,-8.8125 v -39.38281 l 16.63672,16.66797 c -0.43359,1.08203 -0.69141,2.28906 -0.69141,3.54297 0,5.26953 4.26563,9.58593 9.56641,9.58593 5.25781,0 9.57031,-4.27343 9.57031,-9.58593 0,-5.26953 -4.26953,-9.58985 -9.57031,-9.58985 -1.29297,0 -2.5,0.26172 -3.66016,0.73438 z m 12.02344,-10.49219 -33.18359,-33.2539 c -1.38281,-1.38282 -3.40625,-1.76954 -5.21485,-1.03516 -1.8125,0.73437 -2.97656,2.46094 -2.97656,4.40625 V 131.25 l -5.6875,-5.70312 c -4.82812,-4.83594 -4.82812,-12.78125 0,-17.57422 4.82813,-4.83985 12.71485,-4.83985 17.53906,0 l 29.52344,29.58203 33.1836,33.25 c 1.3789,1.38281 3.40234,1.77343 5.21484,1.03906 1.80859,-0.73438 2.97266,-2.46094 2.97266,-4.40625 v -10.92578 l 5.6875,5.69922 c 4.82812,4.83984 4.82812,12.78515 0,17.57812 -4.82813,4.83594 -12.71094,4.83594 -17.53907,0 z m 37.6211,-57.136718 c -1.72266,0 -3.14454,-1.421874 -3.14454,-3.152343 0,-1.726563 1.42188,-3.152344 3.14454,-3.152344 1.72265,0 3.14453,1.425781 3.14453,3.152344 0,1.730469 -1.42188,3.152343 -3.14453,3.152343 z m -26.76172,27.078128 -0.60547,0.60547 c -0.51563,0.39062 -1.20703,0.64843 -1.89453,0.64843 -1.72266,0 -3.14453,-1.42578 -3.14453,-3.15234 0,-1.72656 1.42187,-3.15234 3.14453,-3.15234 1.72265,0 3.14453,1.42578 3.14453,3.15234 0,0.73438 -0.25781,1.38281 -0.64453,1.89844 z m -48.52735,74.28125 c 1.72266,0 3.14844,1.42578 3.14844,3.15234 0,1.72656 -1.42578,3.15234 -3.14844,3.15234 -1.72265,0 -3.14453,-1.42578 -3.14453,-3.15234 0,-1.72656 1.42188,-3.15234 3.14453,-3.15234 z m 26.76172,-26.77735 0.60547,-0.60156 c 0.51563,-0.39062 1.20703,-0.64844 1.89453,-0.64844 1.72656,0 3.14844,1.42578 3.14844,3.15235 0,1.72656 -1.42188,3.15234 -3.14844,3.15234 -1.72265,0 -3.14453,-1.42578 -3.14453,-3.15234 0,-0.73438 0.25781,-1.38282 0.64453,-1.90235 z m 0,0"
       fill-opacity="1"
       fill-rule="evenodd"
       id="path15" />
  </g>
</svg>
